<svg xmlns="http://www.w3.org/2000/svg" width="500.084" height="358.404" viewBox="0 0 500.084 358.404">
  <defs>
    <style>
      .cls-1 {
        fill: #e4e5f0;
      }

      .cls-2 {
        fill: #333984;
      }

      .cls-3 {
        fill: #ef5b5b;
      }
    </style>
  </defs>
  <g id="noun-error-696590" transform="translate(-99.118 -99.121)">
    <path id="Path_1" data-name="Path 1" class="cls-1" d="M162.96,145.04a12.32,12.32,0,1,1-12.32-12.32,12.319,12.319,0,0,1,12.32,12.32"/>
    <path id="Path_2" data-name="Path 2" class="cls-1" d="M202.72,145.04a12.32,12.32,0,1,1-12.32-12.32,12.319,12.319,0,0,1,12.32,12.32"/>
    <path id="Path_3" data-name="Path 3" class="cls-1" d="M242.48,145.04a12.32,12.32,0,1,1-12.32-12.32,12.319,12.319,0,0,1,12.32,12.32"/>
    <path id="Path_4" data-name="Path 4" class="cls-2" d="M492.24,341.04H206.08a8.4,8.4,0,0,0,0,16.8H492.24a8.4,8.4,0,0,0,0-16.8Z"/>
    <path id="Path_5" data-name="Path 5" class="cls-2" d="M444.64,380.24H254.24a8.4,8.4,0,1,0,0,16.8h190.4a8.4,8.4,0,1,0,0-16.8Z"/>
    <path id="Path_6" data-name="Path 6" class="cls-1" d="M553.28,99.121H145.04a46.13,46.13,0,0,0-45.922,45.922V411.6a46.13,46.13,0,0,0,45.922,45.922H553.28A46.13,46.13,0,0,0,599.2,411.6V145.043a46.126,46.126,0,0,0-45.918-45.922ZM582.4,411.6a29.278,29.278,0,0,1-29.121,29.121l-408.24,0A29.278,29.278,0,0,1,115.915,411.6V145.037a29.278,29.278,0,0,1,29.121-29.121h408.24A29.278,29.278,0,0,1,582.4,145.037Z"/>
    <path id="Path_7" data-name="Path 7" class="cls-3" d="M427.28,291.2c0-4.48-1.121-8.961-3.922-12.32L368.479,193.2a23.375,23.375,0,0,0-39.2,0L274.4,278.88c-4.48,7.281-5.039,16.238-.559,23.52A22.853,22.853,0,0,0,294,314.162h109.76a22.852,22.852,0,0,0,20.16-11.762,20.2,20.2,0,0,0,3.359-11.2Zm-15.68,4.48a8.936,8.936,0,0,1-7.84,4.48H294.56a8.936,8.936,0,0,1-7.84-4.48c-1.68-2.8-1.121-6.16.559-8.961l54.879-85.68a8.72,8.72,0,0,1,14.562,0L411.6,286.72c1.121,1.121,1.121,2.8,1.121,4.48a13.309,13.309,0,0,1-1.121,4.48Z"/>
    <path id="Path_8" data-name="Path 8" class="cls-3" d="M342.16,273.28h14v12.879h-14Z"/>
    <path id="Path_9" data-name="Path 9" class="cls-3" d="M342.16,224.56h14v39.2h-14Z"/>
  </g>
</svg>
