<svg width="9" height="10" viewBox="0 0 9 10" fill="none" xmlns="http://www.w3.org/2000/svg">
<path d="M6.17188 5L8.51562 2.65625C8.82031 2.375 8.82031 1.90625 8.51562 1.625L8 1.10938C7.71875 0.804688 7.25 0.804688 6.96875 1.10938L4.625 3.45312L2.25781 1.10938C1.97656 0.804688 1.50781 0.804688 1.22656 1.10938L0.710938 1.625C0.40625 1.90625 0.40625 2.375 0.710938 2.65625L3.05469 5L0.710938 7.36719C0.40625 7.64844 0.40625 8.11719 0.710938 8.39844L1.22656 8.91406C1.50781 9.21875 1.97656 9.21875 2.25781 8.91406L4.625 6.57031L6.96875 8.91406C7.25 9.21875 7.71875 9.21875 8 8.91406L8.51562 8.39844C8.82031 8.11719 8.82031 7.64844 8.51562 7.36719L6.17188 5Z" fill="black"/>
</svg>
