<svg width="33" height="26" viewBox="0 0 33 26" fill="none" xmlns="http://www.w3.org/2000/svg">
<path d="M29.6078 6.48201C29.6288 6.76626 29.6288 7.05057 29.6288 7.33482C29.6288 16.0048 22.8236 25.9947 10.3858 25.9947C6.55392 25.9947 2.9943 24.9185 0 23.0506C0.544436 23.1115 1.06786 23.1318 1.63324 23.1318C4.79499 23.1318 7.70556 22.0963 10.0298 20.3298C7.05646 20.2688 4.5647 18.3805 3.70618 15.7815C4.125 15.8424 4.54375 15.883 4.98352 15.883C5.59073 15.883 6.19801 15.8018 6.76332 15.6597C3.66435 15.0505 1.34004 12.4109 1.34004 9.22314V9.14195C2.24039 9.62926 3.28743 9.93382 4.39712 9.97438C2.57542 8.7967 1.38194 6.78657 1.38194 4.51245C1.38194 3.2942 1.7169 2.17745 2.30323 1.20282C5.63256 5.18251 10.637 7.78145 16.2486 8.06576C16.144 7.57845 16.0811 7.07088 16.0811 6.56326C16.0811 2.94901 19.0964 0.00488281 22.8444 0.00488281C24.7918 0.00488281 26.5506 0.796758 27.7861 2.07595C29.3146 1.7917 30.7803 1.24345 32.0786 0.492195C31.576 2.01507 30.5081 3.29426 29.1052 4.10638C30.4663 3.96432 31.7854 3.59876 32.9999 3.0912C32.0787 4.39063 30.927 5.54795 29.6078 6.48201V6.48201Z" fill="#272E34"/>
</svg>
